<svg aria-hidden="true" style="position: absolute; width: 0; height: 0; overflow: hidden;" version="1.1" xmlns="http://www.w3.org/2000/svg" xmlns:xlink="http://www.w3.org/1999/xlink">
<defs>
<symbol id="icon-logotype" viewBox="0 0 69 32">
<path fill="#f0145a" style="fill: var(--color1, #f0145a)" d="M2.644 0h-2.644v19.093h2.644v-7.083c0-1.198 0.298-2.144 0.894-2.809s1.413-1.012 2.423-1.012c0.868 0 1.594 0.32 2.177 0.932 0.583 0.626 0.881 1.411 0.881 2.357v7.629h2.657v-7.629c0-1.758-0.479-3.142-1.438-4.181s-2.216-1.558-3.745-1.558c-0.441 0-0.881 0.053-1.309 0.173-0.441 0.12-0.79 0.253-1.076 0.399s-0.557 0.306-0.803 0.493c-0.246 0.186-0.415 0.32-0.492 0.399s-0.143 0.133-0.168 0.173v-7.376z"></path>
<path fill="#fff" style="fill: var(--color2, #fff)" d="M17.585 0h-2.725v19.077h2.725v-19.077z"></path>
<path fill="#fff" style="fill: var(--color2, #fff)" d="M33.659 13.49l0.136-1.363c0-1.826-0.6-3.352-1.826-4.578s-2.752-1.826-4.578-1.826-3.407 0.654-4.715 1.962c-1.308 1.308-1.962 2.862-1.962 4.715 0 1.908 0.681 3.543 2.017 4.905s2.943 2.044 4.796 2.044c0.709 0 1.363-0.109 2.017-0.3 0.654-0.218 1.199-0.436 1.581-0.654 0.409-0.245 0.818-0.518 1.172-0.818s0.6-0.518 0.709-0.654c0.109-0.136 0.191-0.218 0.245-0.3l-1.771-1.771-0.409 0.518c-0.273 0.327-0.736 0.654-1.39 1.008-0.681 0.354-1.39 0.518-2.153 0.518-1.063 0-1.962-0.327-2.725-1.008s-1.226-1.472-1.363-2.398h10.22zM27.391 8.039c1.008 0 1.826 0.3 2.507 0.872 0.654 0.6 1.063 1.335 1.226 2.262h-7.576c0.245-0.927 0.681-1.662 1.363-2.262 0.654-0.572 1.499-0.872 2.48-0.872z"></path>
<path fill="#fff" style="fill: var(--color2, #fff)" d="M46.37 18.286c0 1.199-0.354 2.18-1.090 2.943-0.709 0.736-1.608 1.117-2.725 1.117-0.491 0-0.981-0.082-1.444-0.218s-0.818-0.3-1.117-0.491c-0.3-0.191-0.572-0.382-0.845-0.627-0.245-0.245-0.409-0.409-0.491-0.491s-0.136-0.164-0.191-0.218l-1.771 1.771 0.218 0.273c0.136 0.191 0.382 0.436 0.709 0.709 0.327 0.245 0.709 0.518 1.145 0.79 0.436 0.245 0.981 0.463 1.662 0.654s1.39 0.3 2.126 0.3c1.853 0 3.379-0.627 4.66-1.88 1.254-1.281 1.88-2.807 1.88-4.66v-12.264h-2.725v1.363l-0.463-0.409c-0.3-0.273-0.763-0.545-1.417-0.818s-1.363-0.409-2.071-0.409c-1.662 0-3.080 0.627-4.306 1.908s-1.826 2.807-1.826 4.633 0.6 3.352 1.826 4.633c1.226 1.281 2.643 1.908 4.306 1.908 0.463 0 0.899-0.055 1.363-0.164 0.436-0.136 0.79-0.273 1.090-0.409s0.572-0.3 0.818-0.491c0.245-0.191 0.436-0.327 0.491-0.381l0.191-0.191v1.117zM39.011 12.264c0-1.145 0.354-2.098 1.090-2.889s1.608-1.199 2.589-1.199 1.853 0.409 2.589 1.199c0.709 0.79 1.090 1.744 1.090 2.889s-0.382 2.098-1.090 2.889c-0.736 0.79-1.608 1.199-2.589 1.199s-1.853-0.409-2.589-1.199c-0.736-0.79-1.090-1.744-1.090-2.889z"></path>
<path fill="#fff" style="fill: var(--color2, #fff)" d="M63.319 19.077v-8.448c0-1.39-0.518-2.562-1.526-3.488-1.009-0.954-2.317-1.417-3.925-1.417-0.627 0-1.253 0.082-1.853 0.245-0.599 0.191-1.090 0.381-1.445 0.6s-0.708 0.463-1.035 0.763c-0.327 0.273-0.518 0.463-0.627 0.572-0.082 0.109-0.164 0.191-0.218 0.273l1.771 1.771 0.354-0.463c0.218-0.3 0.6-0.572 1.172-0.872s1.199-0.436 1.88-0.436c0.79 0 1.445 0.245 1.962 0.709s0.763 1.063 0.763 1.744l-4.769 0.818c-1.172 0.191-2.126 0.654-2.78 1.39-0.681 0.736-1.036 1.635-1.036 2.698 0 1.008 0.436 1.88 1.308 2.643 0.899 0.79 1.989 1.172 3.325 1.172 0.463 0 0.899-0.055 1.335-0.191 0.463-0.109 0.818-0.245 1.117-0.382s0.572-0.3 0.818-0.491c0.245-0.191 0.409-0.327 0.518-0.381 0.082-0.082 0.136-0.164 0.163-0.191v1.363h2.725zM57.051 16.896c-0.708 0-1.281-0.164-1.69-0.491-0.436-0.327-0.627-0.709-0.627-1.145 0-0.463 0.137-0.872 0.436-1.172s0.708-0.518 1.199-0.6l4.224-0.681v0.272c0 1.226-0.3 2.153-0.926 2.834-0.627 0.654-1.499 0.981-2.617 0.981z"></path>
<path fill="#fff" style="fill: var(--color2, #fff)" d="M69.333 0h-2.725v19.077h2.725v-19.077z"></path>
<path fill="#fff" style="fill: var(--color2, #fff)" d="M0 28.33h0.853v2.99h1.848v0.695h-2.701v-3.685z"></path>
<path fill="#fff" style="fill: var(--color2, #fff)" d="M8.268 31.225h-1.711l-0.326 0.79h-0.874l1.643-3.685h0.842l1.648 3.685h-0.895l-0.326-0.79zM7.999 30.578l-0.584-1.411-0.584 1.411h1.169z"></path>
<path fill="#fff" style="fill: var(--color2, #fff)" d="M17.873 28.33l-1.206 3.685h-0.916l-0.811-2.495-0.837 2.495h-0.911l-1.211-3.685h0.884l0.832 2.59 0.869-2.59h0.79l0.842 2.611 0.858-2.611h0.816z"></path>
<path fill="#fff" style="fill: var(--color2, #fff)" d="M26.946 32.078c-0.376 0-0.716-0.081-1.021-0.242-0.302-0.165-0.541-0.391-0.716-0.679-0.172-0.291-0.258-0.619-0.258-0.984s0.086-0.691 0.258-0.979c0.175-0.291 0.414-0.518 0.716-0.679 0.305-0.165 0.648-0.247 1.027-0.247 0.319 0 0.607 0.056 0.863 0.168 0.26 0.112 0.477 0.274 0.653 0.484l-0.548 0.505c-0.249-0.288-0.558-0.432-0.927-0.432-0.228 0-0.432 0.051-0.611 0.153-0.179 0.098-0.319 0.237-0.421 0.416-0.098 0.179-0.147 0.383-0.147 0.611s0.049 0.432 0.147 0.611c0.102 0.179 0.242 0.319 0.421 0.421 0.179 0.098 0.383 0.147 0.611 0.147 0.369 0 0.677-0.146 0.927-0.437l0.548 0.505c-0.175 0.214-0.393 0.377-0.653 0.49s-0.549 0.168-0.869 0.168z"></path>
<path fill="#fff" style="fill: var(--color2, #fff)" d="M33.383 32.078c-0.383 0-0.728-0.082-1.037-0.247-0.305-0.165-0.546-0.391-0.721-0.679-0.172-0.291-0.258-0.618-0.258-0.979s0.086-0.686 0.258-0.974c0.175-0.291 0.416-0.519 0.721-0.684 0.309-0.165 0.655-0.247 1.037-0.247s0.727 0.082 1.032 0.247c0.305 0.165 0.546 0.393 0.721 0.684 0.176 0.288 0.263 0.612 0.263 0.974s-0.088 0.688-0.263 0.979c-0.175 0.288-0.416 0.514-0.721 0.679s-0.649 0.247-1.032 0.247zM33.383 31.352c0.218 0 0.414-0.049 0.59-0.147 0.175-0.102 0.312-0.242 0.411-0.421 0.102-0.179 0.153-0.383 0.153-0.611s-0.051-0.432-0.153-0.611c-0.098-0.179-0.235-0.318-0.411-0.416-0.176-0.102-0.372-0.153-0.59-0.153s-0.414 0.051-0.59 0.153c-0.175 0.098-0.314 0.237-0.416 0.416-0.098 0.179-0.147 0.383-0.147 0.611s0.049 0.432 0.147 0.611c0.102 0.179 0.24 0.319 0.416 0.421 0.176 0.098 0.372 0.147 0.59 0.147z"></path>
<path fill="#fff" style="fill: var(--color2, #fff)" d="M42.026 32.015l-0.005-2.211-1.085 1.822h-0.384l-1.079-1.774v2.164h-0.8v-3.685h0.705l1.379 2.29 1.358-2.29h0.7l0.011 3.685h-0.8z"></path>
<path fill="#fff" style="fill: var(--color2, #fff)" d="M47.928 28.33c0.326 0 0.609 0.054 0.848 0.163 0.242 0.109 0.428 0.263 0.558 0.463s0.195 0.437 0.195 0.711c0 0.27-0.065 0.507-0.195 0.711-0.13 0.2-0.316 0.354-0.558 0.463-0.239 0.105-0.521 0.158-0.848 0.158h-0.742v1.016h-0.853v-3.685h1.595zM47.881 30.304c0.256 0 0.451-0.054 0.584-0.163 0.133-0.112 0.2-0.27 0.2-0.474 0-0.207-0.067-0.365-0.2-0.474-0.133-0.112-0.328-0.168-0.584-0.168h-0.695v1.279h0.695z"></path>
<path fill="#fff" style="fill: var(--color2, #fff)" d="M55.012 31.225h-1.711l-0.326 0.79h-0.874l1.643-3.685h0.842l1.648 3.685h-0.895l-0.326-0.79zM54.743 30.578l-0.584-1.411-0.585 1.411h1.169z"></path>
<path fill="#fff" style="fill: var(--color2, #fff)" d="M62.628 28.33v3.685h-0.7l-1.837-2.237v2.237h-0.843v-3.685h0.706l1.832 2.237v-2.237h0.843z"></path>
<path fill="#fff" style="fill: var(--color2, #fff)" d="M67.901 30.709v1.306h-0.853v-1.316l-1.427-2.369h0.906l0.985 1.637 0.984-1.637h0.837l-1.432 2.38z"></path>
</symbol>
<symbol id="icon-team-page-arrow-right" width="19" height="19" viewBox="0 0 19 32">
<path fill="none" stroke-linejoin="miter" stroke-linecap="butt" stroke-miterlimit="4" stroke-width="3.7647" d="M2.824 29.176l13.176-13.176-13.176-13.176"></path>
</symbol>
<symbol id="icon-briefcase-icon" viewBox="0 0 32 32">
<path fill="#f0145a" style="fill: var(--color1, #f0145a)" d="M17.232 18.332v-0.558c0-0.68-0.552-1.232-1.232-1.232s-1.232 0.552-1.232 1.232v0.558c0 0.68 0.552 1.232 1.232 1.232s1.232-0.552 1.232-1.232z"></path>
<path fill="#f0145a" style="fill: var(--color1, #f0145a)" d="M18.077 19.014c-0.273 0.893-1.096 1.55-2.076 1.55s-1.804-0.656-2.077-1.55h-8.485c-0.535 0-1.042-0.125-1.495-0.34v5.633c0 1.1 0.9 2 2 2h20.113c1.1 0 2-0.9 2-2v-5.633c-0.454 0.216-0.96 0.34-1.495 0.34l-8.484-0z"></path>
<path fill="#f0145a" style="fill: var(--color1, #f0145a)" d="M26.477 8.898h-4.8c-0.29-1.813-1.861-3.204-3.754-3.204h-3.846c-1.893 0-3.463 1.391-3.754 3.204h-4.8c-1.146 0-2.083 0.9-2.083 2v4.617c0 1.105 0.896 2 2 2h8.39c0.028-0.576 0.275-1.093 0.666-1.466 0.012-0.012 0.026-0.020 0.039-0.032 0.086-0.079 0.177-0.155 0.275-0.22 0.035-0.024 0.075-0.040 0.111-0.060 0.081-0.046 0.161-0.095 0.248-0.131 0.069-0.028 0.143-0.045 0.214-0.066 0.062-0.018 0.121-0.043 0.185-0.056 0.139-0.028 0.284-0.043 0.431-0.043s0.292 0.015 0.431 0.043c0.064 0.013 0.123 0.037 0.185 0.056 0.072 0.021 0.146 0.038 0.215 0.067 0.087 0.036 0.166 0.084 0.247 0.13 0.037 0.021 0.077 0.037 0.113 0.061 0.099 0.065 0.188 0.139 0.274 0.219 0.012 0.012 0.027 0.020 0.039 0.032 0.391 0.374 0.637 0.891 0.666 1.466h8.39c1.105 0 2-0.895 2-2v-4.617c0-1.101-0.937-2.001-2.083-2.001zM12.248 8.898c0.255-0.771 0.973-1.332 1.829-1.332h3.846c0.855 0 1.573 0.561 1.829 1.332h-7.503z"></path>
</symbol>
<symbol id="icon-flag-icon" viewBox="0 0 27 32">
<path fill="#f0145a" style="fill: var(--color1, #f0145a)" d="M26.415 4.92c-0.193-0.192-0.421-0.289-0.683-0.289-0.131 0-0.407 0.107-0.826 0.319s-0.866 0.449-1.335 0.713c-0.47 0.262-1.027 0.5-1.669 0.713s-1.236 0.319-1.783 0.319c-0.505 0-0.951-0.096-1.335-0.289-1.274-0.597-2.382-1.042-3.322-1.335s-1.952-0.441-3.035-0.441c-1.87 0-3.999 0.608-6.387 1.822-0.493 0.246-0.846 0.436-1.074 0.575l-0.227-1.663c0.513-0.445 0.843-1.094 0.843-1.826 0-1.341-1.087-2.428-2.428-2.428s-2.428 1.087-2.428 2.428c0 0.875 0.467 1.635 1.161 2.063l3.28 24.051c0.098 0.716 0.71 1.235 1.414 1.235 0.064 0 0.129-0.004 0.195-0.013 0.782-0.107 1.329-0.827 1.222-1.609l-1.318-9.667c2.392-1.187 4.461-1.785 6.202-1.785 0.739 0 1.459 0.11 2.162 0.333s1.287 0.466 1.753 0.728c0.465 0.263 1.014 0.506 1.646 0.728 0.633 0.223 1.257 0.334 1.874 0.334 1.558 0 3.423-0.587 5.598-1.76 0.273-0.142 0.473-0.281 0.599-0.418s0.19-0.331 0.19-0.583v-11.575c0-0.262-0.095-0.49-0.287-0.683z"></path>
</symbol>
<symbol id="icon-star-icon" viewBox="0 0 32 32">
<path fill="#f0145a" style="fill: var(--color1, #f0145a)" d="M16.097 3.553c-6.845 0-12.413 5.569-12.413 12.413s5.569 12.414 12.413 12.414 12.413-5.569 12.413-12.414c0-6.845-5.568-12.413-12.413-12.413zM22.956 15.059v0.001l-3.593 2.6 1.384 4.23c0.022 0.066 0.034 0.137 0.034 0.209 0 0.369-0.299 0.669-0.669 0.669-0.147 0-0.282-0.047-0.392-0.127l-3.622-2.619-3.622 2.619c-0.11 0.079-0.245 0.127-0.392 0.127-0.37 0-0.669-0.299-0.669-0.669 0-0.073 0.012-0.142 0.034-0.209l1.385-4.23-3.594-2.601c-0.168-0.121-0.277-0.319-0.277-0.541 0-0.37 0.299-0.668 0.669-0.668h4.449l1.377-4.211c0.084-0.274 0.338-0.473 0.64-0.473s0.556 0.199 0.64 0.473l1.378 4.211h4.448c0.369 0 0.669 0.299 0.669 0.668-0 0.223-0.11 0.421-0.277 0.541z"></path>
</symbol>
<symbol id="icon-building-icon" viewBox="0 0 32 32">
<path d="M21.003 28h-9.5v3h9.5v-3z"></path>
<path d="M21.003 28h-9.5v3h9.5v-3z"></path>
<path d="M7.586 1.226l-6.718 6.718 1.768 1.768 6.718-6.718-1.768-1.768z"></path>
<path d="M7.586 1.226l-6.718 6.718 1.768 1.768 6.718-6.718-1.768-1.768z"></path>
<path d="M24.556 1.161l-1.768 1.768 6.718 6.718 1.768-1.768-6.718-6.718z"></path>
<path d="M24.556 1.161l-1.768 1.768 6.718 6.718 1.768-1.768-6.718-6.718z"></path>
<path d="M22.278 4.853l-1.346-0.057c-0.388-0.055-0.783-0.019-1.155 0.106s-0.709 0.333-0.986 0.61l-2.752 2.752-2.877-2.877c-0.25-0.244-0.561-0.415-0.901-0.495s-0.695-0.066-1.028 0.041c-0.314 0.095-0.647 0.104-0.965 0.024s-0.608-0.244-0.84-0.476l-0.427-0.427-5.303 5.303 0.864 0.864-0.057 1.346c-0.055 0.388-0.019 0.783 0.106 1.155s0.333 0.709 0.61 0.986l4.806 4.806c0.064-0.631 0.367-1.214 0.845-1.629l-1.497-1.498 0.354-0.354 1.564 1.564c0.222-0.126 0.462-0.217 0.711-0.27v-1.847l-0.861-0.861 0.354-0.354 0.508 0.508v-2.675c-0.006-0.442 0.151-0.871 0.441-1.205s0.692-0.55 1.13-0.607c0.165-0.016 0.332-0.008 0.495 0.022l-0.615-0.615 0.354-0.354 0.898 0.898c0.159-0.308 0.405-0.563 0.708-0.732s0.648-0.247 0.994-0.222c0.417 0.049 0.805 0.242 1.095 0.546s0.464 0.7 0.493 1.12c0.284-0.135 0.599-0.192 0.913-0.166 0.446 0.053 0.855 0.27 1.15 0.609s0.453 0.774 0.445 1.223v1.712c0.455 0.095 0.875 0.315 1.212 0.635s0.578 0.728 0.696 1.177l1.394-1.394 0.354 0.354-1.658 1.658c0 0.007 0.002 0.013 0.002 0.020v1.66c0.449-0.047 0.869-0.246 1.189-0.564l3.42-3.42c0.244-0.25 0.415-0.561 0.495-0.901s0.066-0.695-0.041-1.028c-0.095-0.314-0.104-0.647-0.024-0.965s0.244-0.608 0.476-0.84l0.427-0.427-5.303-5.303-0.864 0.864z"></path>
<path d="M22.278 4.853l-1.346-0.057c-0.388-0.055-0.783-0.019-1.155 0.106s-0.709 0.333-0.986 0.61l-2.752 2.752-2.877-2.877c-0.25-0.244-0.561-0.415-0.901-0.495s-0.695-0.066-1.028 0.041c-0.314 0.095-0.647 0.104-0.965 0.024s-0.608-0.244-0.84-0.476l-0.427-0.427-5.303 5.303 0.864 0.864-0.057 1.346c-0.055 0.388-0.019 0.783 0.106 1.155s0.333 0.709 0.61 0.986l4.806 4.806c0.064-0.631 0.367-1.214 0.845-1.629l-1.497-1.498 0.354-0.354 1.564 1.564c0.222-0.126 0.462-0.217 0.711-0.27v-1.847l-0.861-0.861 0.354-0.354 0.508 0.508v-2.675c-0.006-0.442 0.151-0.871 0.441-1.205s0.692-0.55 1.13-0.607c0.165-0.016 0.332-0.008 0.495 0.022l-0.615-0.615 0.354-0.354 0.898 0.898c0.159-0.308 0.405-0.563 0.708-0.732s0.648-0.247 0.994-0.222c0.417 0.049 0.805 0.242 1.095 0.546s0.464 0.7 0.493 1.12c0.284-0.135 0.599-0.192 0.913-0.166 0.446 0.053 0.855 0.27 1.15 0.609s0.453 0.774 0.445 1.223v1.712c0.455 0.095 0.875 0.315 1.212 0.635s0.578 0.728 0.696 1.177l1.394-1.394 0.354 0.354-1.658 1.658c0 0.007 0.002 0.013 0.002 0.020v1.66c0.449-0.047 0.869-0.246 1.189-0.564l3.42-3.42c0.244-0.25 0.415-0.561 0.495-0.901s0.066-0.695-0.041-1.028c-0.095-0.314-0.104-0.647-0.024-0.965s0.244-0.608 0.476-0.84l0.427-0.427-5.303-5.303-0.864 0.864z"></path>
<path d="M14.94 10.845c-0.038-0.325-0.202-0.622-0.457-0.826s-0.58-0.301-0.906-0.268c-0.316 0.044-0.604 0.202-0.811 0.444s-0.317 0.552-0.31 0.871v5.679c-0.53 0-1.039 0.211-1.414 0.586s-0.586 0.884-0.586 1.414v4.837c0.004 0.349 0.103 0.691 0.287 0.988s0.445 0.538 0.756 0.698c0.289 0.154 0.531 0.384 0.7 0.665s0.258 0.603 0.258 0.931v0.604h7.5v-1.222l0.992-0.911c0.313-0.236 0.567-0.541 0.742-0.892s0.266-0.737 0.266-1.129v-7.568c0-0.53-0.211-1.039-0.586-1.414s-0.884-0.586-1.414-0.586v-2.161c0.008-0.324-0.103-0.639-0.313-0.885s-0.504-0.406-0.825-0.449c-0.315-0.028-0.629 0.065-0.878 0.26s-0.415 0.477-0.463 0.79h0.229v7.722h-0.5v-7.722h0.25v-1.216c0.008-0.324-0.103-0.639-0.313-0.885s-0.504-0.406-0.825-0.449c-0.173-0.015-0.347 0.005-0.512 0.061s-0.316 0.145-0.444 0.262c-0.128 0.117-0.23 0.26-0.3 0.418s-0.106 0.331-0.106 0.504v0.851h0.25v7.722h-0.5v-7.722h0.234zM12.656 21.020h-0.5v-4h0.5v4zM19.706 13.899h0.5v5.222h-0.5v-5.222z"></path>
<path d="M14.94 10.845c-0.038-0.325-0.202-0.622-0.457-0.826s-0.58-0.301-0.906-0.268c-0.316 0.044-0.604 0.202-0.811 0.444s-0.317 0.552-0.31 0.871v5.679c-0.53 0-1.039 0.211-1.414 0.586s-0.586 0.884-0.586 1.414v4.837c0.004 0.349 0.103 0.691 0.287 0.988s0.445 0.538 0.756 0.698c0.289 0.154 0.531 0.384 0.7 0.665s0.258 0.603 0.258 0.931v0.604h7.5v-1.222l0.992-0.911c0.313-0.236 0.567-0.541 0.742-0.892s0.266-0.737 0.266-1.129v-7.568c0-0.53-0.211-1.039-0.586-1.414s-0.884-0.586-1.414-0.586v-2.161c0.008-0.324-0.103-0.639-0.313-0.885s-0.504-0.406-0.825-0.449c-0.315-0.028-0.629 0.065-0.878 0.26s-0.415 0.477-0.463 0.79h0.229v7.722h-0.5v-7.722h0.25v-1.216c0.008-0.324-0.103-0.639-0.313-0.885s-0.504-0.406-0.825-0.449c-0.173-0.015-0.347 0.005-0.512 0.061s-0.316 0.145-0.444 0.262c-0.128 0.117-0.23 0.26-0.3 0.418s-0.106 0.331-0.106 0.504v0.851h0.25v7.722h-0.5v-7.722h0.234zM12.656 21.020h-0.5v-4h0.5v4zM19.706 13.899h0.5v5.222h-0.5v-5.222z"></path>
</symbol>
<symbol id="icon-comprehensive-icon" viewBox="0 0 32 32">
<path d="M26.726 17.538v8.648c0 1.547-1.212 2.814-2.694 2.814h-16.047c-1.482 0-2.694-1.268-2.694-2.814v-8.648h8.333v3.755l2.384 1.567 2.384-1.567v-3.755h8.333z"></path>
<path d="M14.459 17.538v3.304l1.549 1.018 1.549-1.018v-3.304h-3.098z"></path>
<path d="M6.037 7.571h19.943c0.941 0 1.71 0.854 1.71 1.898v5.127c0 1.044-0.769 1.898-1.71 1.898h-19.943c-0.941 0-1.71-0.854-1.71-1.898v-5.127c0-1.044 0.769-1.898 1.71-1.898z"></path>
<path d="M11.856 2.978h8.305c0.772 0 1.403 0.631 1.403 1.403v2.189h-1.779v-1.293c0-0.349-0.285-0.635-0.634-0.635h-6.286c-0.349 0-0.634 0.286-0.634 0.635v1.293h-1.779v-2.189c0-0.772 0.631-1.403 1.403-1.403z"></path>
</symbol>
<symbol id="icon-it-and-e-commerce-icon" viewBox="0 0 32 32">
<path fill="#000" style="fill: var(--color4, #000)" d="M11.867 14.063c0.552 0 1-0.448 1-1v-3.9c0-1.744 1.418-3.162 3.162-3.162s3.163 1.419 3.163 3.162v3.9c0 0.552 0.448 1 1 1s1-0.448 1-1v-3.9c0-2.846-2.316-5.162-5.162-5.162s-5.162 2.316-5.162 5.162v3.9c0 0.552 0.448 1 1 1z"></path>
<path fill="#000" style="fill: var(--color4, #000)" d="M27.5 11.815h-5.308v1.247c0 1.103-0.897 2-2 2s-2-0.897-2-2v-1.247h-4.325v1.247c0 1.103-0.897 2-2 2s-2-0.897-2-2v-1.247h-5.367c-0.276 0-0.447 0.217-0.381 0.486l3.499 14.248c0.211 0.801 1.054 1.451 1.882 1.451h13c0.829 0 1.671-0.649 1.883-1.45l3.498-14.248c0.066-0.268-0.105-0.486-0.381-0.486z"></path>
<path fill="#fff" style="fill: var(--color2, #fff)" d="M14.3 17.2c0-0.387 0.313-0.7 0.7-0.7s0.7 0.313 0.7 0.7v2.8c0-0.387 0.313-0.7 0.7-0.7s0.7 0.313 0.7 0.7v0.838c0.006-0.381 0.317-1.188 0.7-1.188 0.387 0 0.7 0.313 0.7 0.7 0 0 0.021 0.521 0.067 0.552 0.112-0.237 0.354-0.902 0.633-0.902 0.387 0 0.7 0.313 0.7 0.7v3.5c0 0.773-0.627 1.4-1.4 1.4h-2.34c-0.743 0-1.455-0.295-1.98-0.82l-1.105-1.105-1.575-0.705c0.003-0.668 0.526-0.87 1.050-0.87 0.451 0 0.857 0.070 1.75 0.525l0-5.425z"></path>
</symbol>
<symbol id="icon-judicial-icon" viewBox="0 0 32 32">
<path d="M20.176 10.194c0.366 0.366 0.959 0.367 1.325 0l1.304-1.304c0.366-0.366 0.364-0.959 0-1.325l-3.291-3.29c-0.365-0.366-0.958-0.366-1.324 0l-1.305 1.304c-0.365 0.366-0.365 0.959 0 1.324l3.291 3.292z"></path>
<path d="M12.383 18.134c0.366 0.364 0.959 0.364 1.324 0l1.304-1.305c0.366-0.365 0.366-0.959 0-1.325l-3.291-3.291c-0.366-0.365-0.959-0.366-1.325 0l-1.304 1.304c-0.366 0.366-0.365 0.959 0 1.325l3.292 3.292z"></path>
<path d="M27.324 18.447l-1.323-1.325c-0.367-0.365-0.959-0.365-1.324 0l-0.581 0.58-5.602-5.604 1.213-1.214-3.366-3.365-3.947 3.946 3.366 3.367 1.189-1.187 5.601 5.603-0.524 0.524c-0.366 0.364-0.367 0.958 0 1.324l1.323 1.324c0.367 0.367 0.959 0.367 1.325 0l2.649-2.648c0.366-0.366 0.366-0.959 0-1.325z"></path>
<path d="M17.538 22.471c0-0.599-0.486-1.087-1.087-1.087h-8.484c-0.6 0-1.087 0.487-1.087 1.087v1.764h-2.381v3.695h15.279v-3.695h-2.241v-1.764z"></path>
</symbol>
<symbol id="icon-protection-icon" viewBox="0 0 32 32">
<path d="M20.616 18.848c1.176 0 2.339 0.294 3.363 0.851 0.186 0.1 0.357 0.22 0.531 0.335 1.681-3.29 2.568-6.769 2.568-10.164 0-0.191 0-0.388-0.006-0.585-0.012-0.277-0.209-0.517-0.486-0.578-3.717-0.812-7.083-2.825-9.729-5.815l-0.394-0.449c-0.117-0.135-0.283-0.209-0.462-0.209-0.191-0.025-0.338 0.068-0.455 0.197l-0.603 0.665c-2.511 2.763-5.674 4.671-9.145 5.52l-0.4 0.098c-0.271 0.062-0.462 0.302-0.468 0.578-0.222 8.652 4.886 14.874 7.089 17.151 0.596 0.612 1.261 1.221 1.894 1.724-0.237-0.715-0.374-1.468-0.374-2.241 0-3.902 3.175-7.077 7.077-7.077z"></path>
<path d="M23.391 20.781c-0.849-0.462-1.809-0.702-2.775-0.702-3.225 0-5.846 2.622-5.846 5.846 0 1.089 0.295 2.154 0.862 3.065 1.077 1.742 2.935 2.782 4.985 2.782 3.218 0 5.846-2.622 5.846-5.846 0-2.154-1.175-4.123-3.071-5.145zM23.61 25.147l-4.572 3.558-1.561-2.442c-0.183-0.286-0.099-0.667 0.187-0.85s0.667-0.099 0.85 0.187l0.834 1.304 3.507-2.729c0.268-0.209 0.655-0.161 0.864 0.108s0.16 0.655-0.108 0.864z"></path>
</symbol>
<symbol id="icon-structuring-icon" viewBox="0 0 32 32">
<path d="M30.263 18.864c-0.344-0.142-0.706-0.215-1.076-0.215-0.816 0-1.57 0.348-2.093 0.932l-2.35-0.973c0.247-0.827 0.38-1.702 0.38-2.607s-0.133-1.781-0.38-2.607l2.35-0.973c0.523 0.584 1.277 0.932 2.093 0.932 0.37 0 0.732-0.072 1.076-0.215 1.433-0.594 2.116-2.242 1.522-3.675-0.437-1.055-1.457-1.737-2.599-1.737-0.37 0-0.732 0.072-1.076 0.215-1.129 0.468-1.792 1.591-1.732 2.747l-2.353 0.975c-0.845-1.557-2.13-2.842-3.687-3.687l0.974-2.352c0.049 0.003 0.099 0.004 0.148 0.004 1.142 0 2.162-0.682 2.599-1.737 0.593-1.433-0.089-3.081-1.522-3.675-0.344-0.142-0.706-0.214-1.076-0.214-1.142 0-2.162 0.682-2.599 1.737-0.468 1.129-0.142 2.392 0.718 3.167l-0.974 2.351c-0.827-0.247-1.702-0.38-2.607-0.38s-1.781 0.133-2.607 0.38l-0.974-2.351c0.86-0.775 1.185-2.038 0.718-3.167-0.437-1.055-1.457-1.737-2.599-1.737-0.37 0-0.732 0.072-1.076 0.215-1.433 0.593-2.116 2.242-1.522 3.675 0.437 1.055 1.457 1.737 2.599 1.737 0.050 0 0.099-0.002 0.148-0.004l0.974 2.352c-1.557 0.845-2.842 2.13-3.687 3.687l-2.353-0.975c0.060-1.156-0.603-2.279-1.732-2.747-0.344-0.142-0.706-0.215-1.076-0.215-1.142 0-2.162 0.682-2.599 1.737-0.593 1.433 0.089 3.081 1.522 3.675 0.344 0.142 0.706 0.215 1.076 0.215 0.816 0 1.569-0.348 2.093-0.932l2.35 0.973c-0.247 0.827-0.38 1.702-0.38 2.607s0.133 1.781 0.38 2.607l-2.35 0.973c-0.523-0.583-1.277-0.932-2.093-0.932-0.37 0-0.732 0.072-1.076 0.215-1.433 0.593-2.116 2.242-1.522 3.675 0.437 1.055 1.457 1.737 2.599 1.737 0.37 0 0.732-0.072 1.076-0.215 1.129-0.468 1.792-1.591 1.732-2.747l2.353-0.975c0.845 1.557 2.13 2.842 3.687 3.687l-0.974 2.352c-0.049-0.003-0.098-0.004-0.148-0.004-1.142 0-2.162 0.682-2.599 1.737-0.593 1.433 0.089 3.081 1.522 3.675 0.344 0.142 0.706 0.215 1.076 0.215 1.142 0 2.162-0.682 2.599-1.737 0.468-1.129 0.142-2.392-0.718-3.167l0.974-2.351c0.827 0.247 1.702 0.38 2.607 0.38s1.781-0.133 2.607-0.38l0.974 2.351c-0.86 0.775-1.185 2.038-0.718 3.167 0.437 1.055 1.457 1.737 2.599 1.737 0.37 0 0.732-0.072 1.076-0.215 1.433-0.593 2.116-2.242 1.522-3.675-0.437-1.055-1.457-1.737-2.599-1.737-0.049 0-0.099 0.002-0.148 0.004l-0.974-2.352c1.557-0.845 2.842-2.13 3.687-3.687l2.353 0.975c-0.060 1.156 0.603 2.279 1.732 2.747 0.344 0.142 0.706 0.215 1.076 0.215 1.142 0 2.162-0.682 2.599-1.737 0.594-1.433-0.089-3.081-1.522-3.675zM16 23.25c-3.998 0-7.25-3.252-7.25-7.25s3.252-7.25 7.25-7.25c3.998 0 7.25 3.252 7.25 7.25s-3.252 7.25-7.25 7.25z"></path>
<path d="M30.263 18.864c-0.344-0.142-0.706-0.215-1.076-0.215-0.816 0-1.57 0.348-2.093 0.932l-2.35-0.973c0.247-0.827 0.38-1.702 0.38-2.607s-0.133-1.781-0.38-2.607l2.35-0.973c0.523 0.584 1.277 0.932 2.093 0.932 0.37 0 0.732-0.072 1.076-0.215 1.433-0.594 2.116-2.242 1.522-3.675-0.437-1.055-1.457-1.737-2.599-1.737-0.37 0-0.732 0.072-1.076 0.215-1.129 0.468-1.792 1.591-1.732 2.747l-2.353 0.975c-0.845-1.557-2.13-2.842-3.687-3.687l0.974-2.352c0.049 0.003 0.099 0.004 0.148 0.004 1.142 0 2.162-0.682 2.599-1.737 0.593-1.433-0.089-3.081-1.522-3.675-0.344-0.142-0.706-0.214-1.076-0.214-1.142 0-2.162 0.682-2.599 1.737-0.468 1.129-0.142 2.392 0.718 3.167l-0.974 2.351c-0.827-0.247-1.702-0.38-2.607-0.38s-1.781 0.133-2.607 0.38l-0.974-2.351c0.86-0.775 1.185-2.038 0.718-3.167-0.437-1.055-1.457-1.737-2.599-1.737-0.37 0-0.732 0.072-1.076 0.215-1.433 0.593-2.116 2.242-1.522 3.675 0.437 1.055 1.457 1.737 2.599 1.737 0.050 0 0.099-0.002 0.148-0.004l0.974 2.352c-1.557 0.845-2.842 2.13-3.687 3.687l-2.353-0.975c0.060-1.156-0.603-2.279-1.732-2.747-0.344-0.142-0.706-0.215-1.076-0.215-1.142 0-2.162 0.682-2.599 1.737-0.593 1.433 0.089 3.081 1.522 3.675 0.344 0.142 0.706 0.215 1.076 0.215 0.816 0 1.569-0.348 2.093-0.932l2.35 0.973c-0.247 0.827-0.38 1.702-0.38 2.607s0.133 1.781 0.38 2.607l-2.35 0.973c-0.523-0.583-1.277-0.932-2.093-0.932-0.37 0-0.732 0.072-1.076 0.215-1.433 0.593-2.116 2.242-1.522 3.675 0.437 1.055 1.457 1.737 2.599 1.737 0.37 0 0.732-0.072 1.076-0.215 1.129-0.468 1.792-1.591 1.732-2.747l2.353-0.975c0.845 1.557 2.13 2.842 3.687 3.687l-0.974 2.352c-0.049-0.003-0.098-0.004-0.148-0.004-1.142 0-2.162 0.682-2.599 1.737-0.593 1.433 0.089 3.081 1.522 3.675 0.344 0.142 0.706 0.215 1.076 0.215 1.142 0 2.162-0.682 2.599-1.737 0.468-1.129 0.142-2.392-0.718-3.167l0.974-2.351c0.827 0.247 1.702 0.38 2.607 0.38s1.781-0.133 2.607-0.38l0.974 2.351c-0.86 0.775-1.185 2.038-0.718 3.167 0.437 1.055 1.457 1.737 2.599 1.737 0.37 0 0.732-0.072 1.076-0.215 1.433-0.593 2.116-2.242 1.522-3.675-0.437-1.055-1.457-1.737-2.599-1.737-0.049 0-0.099 0.002-0.148 0.004l-0.974-2.352c1.557-0.845 2.842-2.13 3.687-3.687l2.353 0.975c-0.060 1.156 0.603 2.279 1.732 2.747 0.344 0.142 0.706 0.215 1.076 0.215 1.142 0 2.162-0.682 2.599-1.737 0.594-1.433-0.089-3.081-1.522-3.675zM16 23.25c-3.998 0-7.25-3.252-7.25-7.25s3.252-7.25 7.25-7.25c3.998 0 7.25 3.252 7.25 7.25s-3.252 7.25-7.25 7.25z"></path>
<path d="M16 10.625c-2.964 0-5.375 2.411-5.375 5.375s2.411 5.375 5.375 5.375c2.964 0 5.375-2.411 5.375-5.375s-2.411-5.375-5.375-5.375zM16.938 18.063h-1.875v-4.125h1.875v4.125z"></path>
<path d="M16 10.625c-2.964 0-5.375 2.411-5.375 5.375s2.411 5.375 5.375 5.375c2.964 0 5.375-2.411 5.375-5.375s-2.411-5.375-5.375-5.375zM16.938 18.063h-1.875v-4.125h1.875v4.125z"></path>
</symbol>
<symbol id="icon-facebook-icon" viewBox="0 0 32 32">
<path fill="#435695" style="fill: var(--color5, #435695)" d="M30.234 0h-28.468c-0.976 0-1.766 0.79-1.766 1.766v28.468c0 0.976 0.79 1.766 1.766 1.766h15.326v-12.392h-4.172v-4.828h4.172v-3.566c0-4.132 2.524-6.38 6.212-6.38 1.766 0 3.284 0.128 3.726 0.188v4.32h-2.56c-2 0-2.39 0.96-2.39 2.36v3.080h4.78l-0.62 4.84h-4.16v12.378h8.154c0.976 0 1.766-0.79 1.766-1.766v-28.468c0-0.976-0.79-1.766-1.766-1.766z"></path>
</symbol>
<symbol id="icon-linked-in-icon" viewBox="0 0 32 32">
<path fill="#1178b3" style="fill: var(--color6, #1178b3)" d="M4.8 12h4.8v15.2h-4.8v-15.2zM7.2 4.4c1.6 0 2.8 1.2 2.8 2.8-0.2 1.4-1.4 2.8-2.8 2.8-1.6 0-2.8-1.4-2.8-2.8 0-1.6 1.2-2.8 2.8-2.8zM12.4 12h4.6v2c1-1.6 2.8-2.4 4.6-2.4 4.8 0 5.6 3.2 5.6 7.2v8.4h-4.8v-7.4c0-1.8 0-4-2.4-4s-2.8 2-2.8 4v7.6h-4.8v-15.4zM26 0h-20c-4 0-6 2-6 6v20c0 4 2 6 6 6h20c4 0 6-2 6-6v-20c0-4-2-6-6-6z"></path>
</symbol>
<symbol id="icon-telegram-icon" viewBox="0 0 35 32">
<path fill="#3cacdc" style="fill: var(--color7, #3cacdc)" d="M13.091 24.642l-2.182-6.545 24-17.455-33.552 12.903c0 0-1.466 0.502-1.351 1.429s1.313 1.351 1.313 1.351l7.8 2.625 3.535 11.245 5.983-5.26-0.015-0.011 7.87 6.035c2.123 0.927 2.895-1.004 2.895-1.004l5.522-29.313-21.818 24z"></path>
</symbol>
<symbol id="icon-facebook-footer-icon" viewBox="0 0 32 32">
<path d="M32 16.098c0-8.891-7.163-16.098-16-16.098s-16 7.207-16 16.098c0 8.035 5.851 14.695 13.5 15.902v-11.249h-4.062v-4.653h4.062v-3.547c0-4.035 2.389-6.263 6.043-6.263 1.751 0 3.582 0.314 3.582 0.314v3.962h-2.018c-1.988 0-2.607 1.241-2.607 2.514v3.020h4.437l-0.709 4.653h-3.728v11.249c7.649-1.208 13.5-7.867 13.5-15.902z"></path>
</symbol>
<symbol id="icon-facebook-header-icon" viewBox="0 0 31 32">
<path d="M30.72 16.094c0-8.535-6.877-15.454-15.36-15.454s-15.36 6.919-15.36 15.454c0 7.714 5.617 14.107 12.96 15.266v-10.799h-3.9v-4.467h3.9v-3.405c0-3.873 2.293-6.013 5.802-6.013 1.68 0 3.438 0.302 3.438 0.302v3.803h-1.937c-1.908 0-2.503 1.191-2.503 2.413v2.899h4.26l-0.681 4.467h-3.579v10.799c7.343-1.159 12.96-7.553 12.96-15.266z"></path>
</symbol>
<symbol id="icon-hamburger-icon" viewBox="0 0 31 32">
<path stroke-linejoin="miter" stroke-linecap="butt" stroke-miterlimit="4" stroke-width="1.9394" d="M6.788 10.182h17.455"></path>
<path stroke-linejoin="miter" stroke-linecap="butt" stroke-miterlimit="4" stroke-width="1.9394" d="M6.788 16h17.455"></path>
<path stroke-linejoin="miter" stroke-linecap="butt" stroke-miterlimit="4" stroke-width="1.9394" d="M6.788 21.818h17.455"></path>
</symbol>
<symbol id="icon-header-dot-separator-icon" viewBox="0 0 27 32">
<path d="M27.429 16c0 7.574-6.14 13.714-13.714 13.714s-13.714-6.14-13.714-13.714c0-7.574 6.14-13.714 13.714-13.714s13.714 6.14 13.714 13.714z"></path>
</symbol>
<symbol id="icon-logoH" viewBox="0 0 28 32">
<path fill="#000" style="fill: var(--color4, #000)" d="M9.817 13.617h7.488c2.151 0 3.946 0.918 5.063 2.468s1.15 4.138 0.499 6.162l-0.832 2.584c-0.347 1.079-1.974 6.182-2.291 7.168h-4.085c0 0 0.062 0.055 3.475-10.553 0.301-0.936 0.473-2.456 0-3.113s-1.27-1.046-2.325-1.046h-6.121c-1.202 0-2.267 0.782-2.639 1.936l1.767-5.607z"></path>
<path fill="#f0145a" style="fill: var(--color1, #f0145a)" d="M3.979 32h-3.994c3.399-10.673 6.836-21.333 10.255-32h3.988c-0.017 0.053-0.034 0.107-0.051 0.16-5.532 17.022-3.645 11.274-10.199 31.84z"></path>
</symbol>
<symbol id="icon-logo-slash-icon" viewBox="0 0 14 32">
<path fill="#f0145a" style="fill: var(--color1, #f0145a)" d="M10.332 0h3.966l-10.332 32h-3.966l10.332-32z"></path>
</symbol>
<symbol id="icon-paginator-circle-icon" viewBox="0 0 32 32">
<path fill="#24a3ff" style="fill: var(--color3, #24a3ff)" d="M32 16c0 8.837-7.163 16-16 16s-16-7.163-16-16c0-8.837 7.163-16 16-16s16 7.163 16 16z"></path>
</symbol>
<symbol id="icon-popup-close-icon" viewBox="0 0 32 32">
<path fill="none" stroke="#ec6f5d" style="stroke: var(--color10, #ec6f5d)" stroke-linejoin="miter" stroke-linecap="butt" stroke-miterlimit="4" stroke-width="2" d="M7 7l18 18"></path>
<path fill="none" stroke="#ec6f5d" style="stroke: var(--color10, #ec6f5d)" stroke-linejoin="miter" stroke-linecap="butt" stroke-miterlimit="4" stroke-width="2" d="M25 7l-18 18"></path>
</symbol>
<symbol id="icon-scroll-button-img" viewBox="0 0 32 32">
<path fill="none" opacity="0.5" stroke="#fff" style="stroke: var(--color2, #fff)" stroke-linejoin="miter" stroke-linecap="butt" stroke-miterlimit="4" stroke-width="1.5238" d="M31.238 16c0 8.416-6.822 15.238-15.238 15.238s-15.238-6.822-15.238-15.238c0-8.416 6.822-15.238 15.238-15.238s15.238 6.822 15.238 15.238z"></path>
<path fill="none" stroke="#fff" style="stroke: var(--color2, #fff)" stroke-linejoin="miter" stroke-linecap="butt" stroke-miterlimit="4" stroke-width="1.5238" d="M9.143 13.714l6.857 6.857 6.857-6.857"></path>
</symbol>
<symbol id="icon-logotype-black-text" viewBox="0 0 69 32">
<path fill="#f0145a" style="fill: var(--color1, #f0145a)" d="M2.644 0h-2.644v19.093h2.644v-7.083c0-1.198 0.298-2.144 0.894-2.809s1.413-1.012 2.423-1.012c0.868 0 1.594 0.32 2.177 0.932 0.583 0.626 0.881 1.411 0.881 2.357v7.629h2.657v-7.629c0-1.758-0.479-3.142-1.438-4.181s-2.216-1.558-3.745-1.558c-0.441 0-0.881 0.053-1.309 0.173-0.441 0.12-0.79 0.253-1.076 0.399s-0.557 0.306-0.803 0.493c-0.246 0.186-0.415 0.32-0.492 0.399s-0.143 0.133-0.168 0.173v-7.376z"></path>
<path fill="#323264" style="fill: var(--color2, #323264)" d="M17.585 0h-2.725v19.077h2.725v-19.077z"></path>
<path fill="#323264" style="fill: var(--color2, #323264)" d="M33.659 13.49l0.136-1.363c0-1.826-0.6-3.352-1.826-4.578s-2.752-1.826-4.578-1.826-3.407 0.654-4.715 1.962c-1.308 1.308-1.962 2.862-1.962 4.715 0 1.908 0.681 3.543 2.017 4.905s2.943 2.044 4.796 2.044c0.709 0 1.363-0.109 2.017-0.3 0.654-0.218 1.199-0.436 1.581-0.654 0.409-0.245 0.818-0.518 1.172-0.818s0.6-0.518 0.709-0.654c0.109-0.136 0.191-0.218 0.245-0.3l-1.771-1.771-0.409 0.518c-0.273 0.327-0.736 0.654-1.39 1.008-0.681 0.354-1.39 0.518-2.153 0.518-1.063 0-1.962-0.327-2.725-1.008s-1.226-1.472-1.363-2.398h10.22zM27.391 8.039c1.008 0 1.826 0.3 2.507 0.872 0.654 0.6 1.063 1.335 1.226 2.262h-7.576c0.245-0.927 0.681-1.662 1.363-2.262 0.654-0.572 1.499-0.872 2.48-0.872z"></path>
<path fill="#323264" style="fill: var(--color2, #323264)" d="M46.37 18.286c0 1.199-0.354 2.18-1.090 2.943-0.709 0.736-1.608 1.117-2.725 1.117-0.491 0-0.981-0.082-1.444-0.218s-0.818-0.3-1.117-0.491c-0.3-0.191-0.572-0.382-0.845-0.627-0.245-0.245-0.409-0.409-0.491-0.491s-0.136-0.164-0.191-0.218l-1.771 1.771 0.218 0.273c0.136 0.191 0.382 0.436 0.709 0.709 0.327 0.245 0.709 0.518 1.145 0.79 0.436 0.245 0.981 0.463 1.662 0.654s1.39 0.3 2.126 0.3c1.853 0 3.379-0.627 4.66-1.88 1.254-1.281 1.88-2.807 1.88-4.66v-12.264h-2.725v1.363l-0.463-0.409c-0.3-0.273-0.763-0.545-1.417-0.818s-1.363-0.409-2.071-0.409c-1.662 0-3.080 0.627-4.306 1.908s-1.826 2.807-1.826 4.633 0.6 3.352 1.826 4.633c1.226 1.281 2.643 1.908 4.306 1.908 0.463 0 0.899-0.055 1.363-0.164 0.436-0.136 0.79-0.273 1.090-0.409s0.572-0.3 0.818-0.491c0.245-0.191 0.436-0.327 0.491-0.381l0.191-0.191v1.117zM39.011 12.264c0-1.145 0.354-2.098 1.090-2.889s1.608-1.199 2.589-1.199 1.853 0.409 2.589 1.199c0.709 0.79 1.090 1.744 1.090 2.889s-0.382 2.098-1.090 2.889c-0.736 0.79-1.608 1.199-2.589 1.199s-1.853-0.409-2.589-1.199c-0.736-0.79-1.090-1.744-1.090-2.889z"></path>
<path fill="#323264" style="fill: var(--color2, #323264)" d="M63.319 19.077v-8.448c0-1.39-0.518-2.562-1.526-3.488-1.009-0.954-2.317-1.417-3.925-1.417-0.627 0-1.253 0.082-1.853 0.245-0.599 0.191-1.090 0.381-1.445 0.6s-0.708 0.463-1.035 0.763c-0.327 0.273-0.518 0.463-0.627 0.572-0.082 0.109-0.164 0.191-0.218 0.273l1.771 1.771 0.354-0.463c0.218-0.3 0.6-0.572 1.172-0.872s1.199-0.436 1.88-0.436c0.79 0 1.445 0.245 1.962 0.709s0.763 1.063 0.763 1.744l-4.769 0.818c-1.172 0.191-2.126 0.654-2.78 1.39-0.681 0.736-1.036 1.635-1.036 2.698 0 1.008 0.436 1.88 1.308 2.643 0.899 0.79 1.989 1.172 3.325 1.172 0.463 0 0.899-0.055 1.335-0.191 0.463-0.109 0.818-0.245 1.117-0.382s0.572-0.3 0.818-0.491c0.245-0.191 0.409-0.327 0.518-0.381 0.082-0.082 0.136-0.164 0.163-0.191v1.363h2.725zM57.051 16.896c-0.708 0-1.281-0.164-1.69-0.491-0.436-0.327-0.627-0.709-0.627-1.145 0-0.463 0.137-0.872 0.436-1.172s0.708-0.518 1.199-0.6l4.224-0.681v0.272c0 1.226-0.3 2.153-0.926 2.834-0.627 0.654-1.499 0.981-2.617 0.981z"></path>
<path fill="#323264" style="fill: var(--color2, #323264)" d="M69.333 0h-2.725v19.077h2.725v-19.077z"></path>
<path fill="#323264" style="fill: var(--color2, #323264)" d="M0 28.33h0.853v2.99h1.848v0.695h-2.701v-3.685z"></path>
<path fill="#323264" style="fill: var(--color2, #323264)" d="M8.268 31.225h-1.711l-0.326 0.79h-0.874l1.643-3.685h0.842l1.648 3.685h-0.895l-0.326-0.79zM7.999 30.578l-0.584-1.411-0.584 1.411h1.169z"></path>
<path fill="#323264" style="fill: var(--color2, #323264)" d="M17.873 28.33l-1.206 3.685h-0.916l-0.811-2.495-0.837 2.495h-0.911l-1.211-3.685h0.884l0.832 2.59 0.869-2.59h0.79l0.842 2.611 0.858-2.611h0.816z"></path>
<path fill="#323264" style="fill: var(--color2, #323264)" d="M26.946 32.078c-0.376 0-0.716-0.081-1.021-0.242-0.302-0.165-0.541-0.391-0.716-0.679-0.172-0.291-0.258-0.619-0.258-0.984s0.086-0.691 0.258-0.979c0.175-0.291 0.414-0.518 0.716-0.679 0.305-0.165 0.648-0.247 1.027-0.247 0.319 0 0.607 0.056 0.863 0.168 0.26 0.112 0.477 0.274 0.653 0.484l-0.548 0.505c-0.249-0.288-0.558-0.432-0.927-0.432-0.228 0-0.432 0.051-0.611 0.153-0.179 0.098-0.319 0.237-0.421 0.416-0.098 0.179-0.147 0.383-0.147 0.611s0.049 0.432 0.147 0.611c0.102 0.179 0.242 0.319 0.421 0.421 0.179 0.098 0.383 0.147 0.611 0.147 0.369 0 0.677-0.146 0.927-0.437l0.548 0.505c-0.175 0.214-0.393 0.377-0.653 0.49s-0.549 0.168-0.869 0.168z"></path>
<path fill="#323264" style="fill: var(--color2, #323264)" d="M33.383 32.078c-0.383 0-0.728-0.082-1.037-0.247-0.305-0.165-0.546-0.391-0.721-0.679-0.172-0.291-0.258-0.618-0.258-0.979s0.086-0.686 0.258-0.974c0.175-0.291 0.416-0.519 0.721-0.684 0.309-0.165 0.655-0.247 1.037-0.247s0.727 0.082 1.032 0.247c0.305 0.165 0.546 0.393 0.721 0.684 0.176 0.288 0.263 0.612 0.263 0.974s-0.088 0.688-0.263 0.979c-0.175 0.288-0.416 0.514-0.721 0.679s-0.649 0.247-1.032 0.247zM33.383 31.352c0.218 0 0.414-0.049 0.59-0.147 0.175-0.102 0.312-0.242 0.411-0.421 0.102-0.179 0.153-0.383 0.153-0.611s-0.051-0.432-0.153-0.611c-0.098-0.179-0.235-0.318-0.411-0.416-0.176-0.102-0.372-0.153-0.59-0.153s-0.414 0.051-0.59 0.153c-0.175 0.098-0.314 0.237-0.416 0.416-0.098 0.179-0.147 0.383-0.147 0.611s0.049 0.432 0.147 0.611c0.102 0.179 0.24 0.319 0.416 0.421 0.176 0.098 0.372 0.147 0.59 0.147z"></path>
<path fill="#323264" style="fill: var(--color2, #323264)" d="M42.026 32.015l-0.005-2.211-1.085 1.822h-0.384l-1.079-1.774v2.164h-0.8v-3.685h0.705l1.379 2.29 1.358-2.29h0.7l0.011 3.685h-0.8z"></path>
<path fill="#323264" style="fill: var(--color2, #323264)" d="M47.928 28.33c0.326 0 0.609 0.054 0.848 0.163 0.242 0.109 0.428 0.263 0.558 0.463s0.195 0.437 0.195 0.711c0 0.27-0.065 0.507-0.195 0.711-0.13 0.2-0.316 0.354-0.558 0.463-0.239 0.105-0.521 0.158-0.848 0.158h-0.742v1.016h-0.853v-3.685h1.595zM47.881 30.304c0.256 0 0.451-0.054 0.584-0.163 0.133-0.112 0.2-0.27 0.2-0.474 0-0.207-0.067-0.365-0.2-0.474-0.133-0.112-0.328-0.168-0.584-0.168h-0.695v1.279h0.695z"></path>
<path fill="#323264" style="fill: var(--color2, #323264)" d="M55.012 31.225h-1.711l-0.326 0.79h-0.874l1.643-3.685h0.842l1.648 3.685h-0.895l-0.326-0.79zM54.743 30.578l-0.584-1.411-0.585 1.411h1.169z"></path>
<path fill="#323264" style="fill: var(--color2, #323264)" d="M62.628 28.33v3.685h-0.7l-1.837-2.237v2.237h-0.843v-3.685h0.706l1.832 2.237v-2.237h0.843z"></path>
<path fill="#323264" style="fill: var(--color2, #323264)" d="M67.901 30.709v1.306h-0.853v-1.316l-1.427-2.369h0.906l0.985 1.637 0.984-1.637h0.837l-1.432 2.38z"></path>
</symbol>
</defs>
</svg> 
