<svg width="24.000000" height="24.000000" viewBox="0 0 24 24" fill="none" xmlns="http://www.w3.org/2000/svg" xmlns:xlink="http://www.w3.org/1999/xlink">
	<desc>
			Created with Pixso.
	</desc>
	<defs/>
	<path id="Vector" d="M24 12.0732C24 5.40552 18.6274 0 12 0C5.37256 0 0 5.40552 0 12.0732C0 18.0994 4.38818 23.0942 10.125 24L10.125 15.5632L7.07812 15.5632L7.07812 12.0732L10.125 12.0732L10.125 9.41333C10.125 6.38745 11.9165 4.71606 14.6575 4.71606C15.9705 4.71606 17.3438 4.9519 17.3438 4.9519L17.3438 7.9231L15.8306 7.9231C14.3398 7.9231 13.875 8.85376 13.875 9.80859L13.875 12.0732L17.2031 12.0732L16.6711 15.5632L13.875 15.5632L13.875 24C19.6118 23.0942 24 18.0994 24 12.0732Z" fill="#B3B3BA" fill-opacity="1.000000" fill-rule="nonzero"/>
</svg>
