<svg width="69.333496" height="32.078125" viewBox="0 0 69.3335 32.0781" fill="none" xmlns="http://www.w3.org/2000/svg" xmlns:xlink="http://www.w3.org/1999/xlink">
	<desc>
			Created with Pixso.
	</desc>
	<defs/>
	<path id="h" d="M2.64355 0L0 0L0 19.0925L2.64355 19.0925L2.64355 12.0095C2.64355 10.811 2.94141 9.86572 3.5376 9.2002C4.13379 8.53442 4.9502 8.18823 5.96094 8.18823C6.8291 8.18823 7.55518 8.50781 8.13818 9.12012C8.72119 9.74609 9.01904 10.5315 9.01904 11.4768L9.01904 19.106L11.6758 19.106L11.6758 11.4768C11.6758 9.71948 11.1963 8.33472 10.2373 7.29614C9.27832 6.25757 8.02148 5.73853 6.49219 5.73853C6.05176 5.73853 5.61133 5.79175 5.18359 5.91162C4.74268 6.03125 4.39307 6.16455 4.10791 6.31104C3.82275 6.45728 3.55078 6.61719 3.30469 6.80347C3.05811 6.98999 2.88965 7.12305 2.81201 7.20288C2.73438 7.28296 2.66943 7.33618 2.64355 7.37598L2.64355 0Z" fill="#F0145A" fill-opacity="1.000000" fill-rule="nonzero"/>
	<path id="Vector" d="M14.8604 0L17.5854 0L17.5854 19.0767L14.8604 19.0767L14.8604 0Z" fill="#323264" fill-opacity="1.000000" fill-rule="evenodd"/>
	<path id="Vector" d="M33.6592 13.4897L33.7954 12.1272C33.7954 10.3013 33.1958 8.77515 31.9697 7.54883C30.7432 6.32251 29.2173 5.7229 27.3911 5.7229C25.5654 5.7229 23.9849 6.37695 22.6768 7.68506C21.3687 8.99316 20.7144 10.5466 20.7144 12.3997C20.7144 14.3074 21.3955 15.9426 22.731 17.3052C24.0664 18.6677 25.6743 19.3491 27.5273 19.3491C28.2358 19.3491 28.8901 19.2402 29.5439 19.0493C30.1982 18.8313 30.7432 18.6133 31.125 18.3953C31.5337 18.1501 31.9424 17.8774 32.2969 17.5776C32.6509 17.2778 32.896 17.0598 33.0054 16.9236C33.1143 16.7874 33.1958 16.7056 33.2505 16.6238L31.479 14.8525L31.0703 15.3704C30.7979 15.6973 30.3345 16.0244 29.6807 16.3787C28.999 16.7329 28.2905 16.8965 27.5273 16.8965C26.4648 16.8965 25.5654 16.5693 24.8022 15.8882C24.0391 15.2068 23.5757 14.4165 23.4395 13.4897L33.6592 13.4897ZM27.3911 8.03931C28.3994 8.03931 29.2173 8.33911 29.8984 8.91138C30.5527 9.51099 30.9614 10.2468 31.125 11.1733L23.5488 11.1733C23.7939 10.2468 24.23 9.51099 24.9111 8.91138C25.5654 8.33911 26.4102 8.03931 27.3911 8.03931Z" fill="#323264" fill-opacity="1.000000" fill-rule="nonzero"/>
	<path id="Vector" d="M46.3696 18.2864C46.3696 19.4854 46.0151 20.4666 45.2793 21.2295C44.5708 21.9653 43.6714 22.3469 42.5542 22.3469C42.0635 22.3469 41.5732 22.2651 41.1099 22.1289C40.6465 21.9927 40.2925 21.8291 39.9927 21.6384C39.6929 21.4475 39.4199 21.2568 39.1475 21.0115C38.9023 20.7664 38.7388 20.6028 38.6572 20.521C38.5752 20.4392 38.521 20.3574 38.4663 20.303L36.6948 22.0745L36.9131 22.3469C37.0493 22.5376 37.2944 22.783 37.6216 23.0554C37.9487 23.3008 38.3301 23.5732 38.7661 23.8457C39.2021 24.0911 39.7471 24.3091 40.4287 24.4998C41.1099 24.6907 41.8184 24.7996 42.5542 24.7996C44.4072 24.7996 45.9336 24.1729 47.2144 22.9192C48.4678 21.6384 49.0947 20.1123 49.0947 18.259L49.0947 5.99536L46.3696 5.99536L46.3696 7.35815L45.9062 6.94922C45.6064 6.67676 45.1431 6.4043 44.4893 6.13159C43.835 5.85913 43.1265 5.7229 42.418 5.7229C40.7554 5.7229 39.3384 6.34961 38.1118 7.63062C36.8857 8.91138 36.2861 10.4375 36.2861 12.2634C36.2861 14.0894 36.8857 15.6155 38.1118 16.8965C39.3384 18.1772 40.7554 18.8042 42.418 18.8042C42.8813 18.8042 43.3174 18.7495 43.7808 18.6406C44.2168 18.5044 44.5708 18.3682 44.8706 18.2317C45.1704 18.0955 45.4429 17.9319 45.688 17.7412C45.9336 17.5505 46.1245 17.4143 46.1787 17.3596L46.3696 17.1689L46.3696 18.2864ZM39.0112 12.2634C39.0112 11.1189 39.3657 10.165 40.1016 9.37476C40.8374 8.58447 41.7095 8.17554 42.6904 8.17554C43.6714 8.17554 44.5435 8.58447 45.2793 9.37476C45.9878 10.165 46.3696 11.1189 46.3696 12.2634C46.3696 13.4082 45.9878 14.3618 45.2793 15.1523C44.5435 15.9426 43.6714 16.3513 42.6904 16.3513C41.7095 16.3513 40.8374 15.9426 40.1016 15.1523C39.3657 14.3618 39.0112 13.4082 39.0112 12.2634Z" fill="#323264" fill-opacity="1.000000" fill-rule="nonzero"/>
	<path id="Vector" d="M63.3193 19.0767L63.3193 10.6284C63.3193 9.23853 62.8018 8.06665 61.7935 7.14014C60.7852 6.18628 59.4771 5.7229 57.8691 5.7229C57.2422 5.7229 56.6152 5.80469 56.0161 5.96826C55.4165 6.15894 54.9258 6.34961 54.5713 6.56763C54.2173 6.78564 53.8628 7.03101 53.5361 7.33081C53.209 7.60327 53.0181 7.79419 52.9092 7.90308C52.8271 8.01221 52.7456 8.09375 52.6909 8.17554L54.4624 9.94702L54.8169 9.48364C55.0347 9.18408 55.4165 8.91138 55.9888 8.61157C56.561 8.31177 57.1875 8.17554 57.8691 8.17554C58.6592 8.17554 59.3135 8.4209 59.8311 8.88428C60.3491 9.34741 60.5942 9.94702 60.5942 10.6284L55.8252 11.4458C54.6533 11.6367 53.6992 12.1001 53.0454 12.8357C52.3643 13.5715 52.0098 14.4709 52.0098 15.5337C52.0098 16.5422 52.4458 17.4143 53.3179 18.1772C54.2173 18.9675 55.3071 19.3491 56.6426 19.3491C57.106 19.3491 57.542 19.2947 57.978 19.1584C58.4414 19.0493 58.7954 18.9131 59.0952 18.7769C59.395 18.6406 59.6675 18.4771 59.9131 18.2864C60.1582 18.0955 60.3218 17.9592 60.4307 17.9048C60.5127 17.823 60.5669 17.7412 60.5942 17.7141L60.5942 19.0767L63.3193 19.0767ZM57.0513 16.8965C56.3428 16.8965 55.7705 16.7329 55.3618 16.4058C54.9258 16.0789 54.7349 15.6973 54.7349 15.2612C54.7349 14.7981 54.8711 14.3892 55.1709 14.0894C55.4707 13.7896 55.8794 13.5715 56.3701 13.4897L60.5942 12.8086L60.5942 13.0811C60.5942 14.3074 60.2944 15.2341 59.6675 15.9153C59.041 16.5693 58.1689 16.8965 57.0513 16.8965Z" fill="#323264" fill-opacity="1.000000" fill-rule="nonzero"/>
	<path id="Vector" d="M66.6079 0L69.333 0L69.333 19.0767L66.6079 19.0767L66.6079 0Z" fill="#323264" fill-opacity="1.000000" fill-rule="evenodd"/>
	<path id="LAW COMPANY" d="M26.9458 32.0781C26.5703 32.0781 26.2295 31.9976 25.9243 31.8359C25.6226 31.6711 25.3838 31.4448 25.2085 31.157Q25.1484 31.0557 25.1025 30.9487Q24.9502 30.5933 24.9502 30.1724C24.9502 29.8074 25.0366 29.481 25.2085 29.1931C25.3838 28.9019 25.6226 28.6755 25.9243 28.5142C26.2295 28.3491 26.5718 28.2666 26.9512 28.2666C27.2705 28.2666 27.5581 28.3228 27.8145 28.4351C28.0742 28.5474 28.2915 28.7087 28.4673 28.9194L27.9194 29.4248C27.6704 29.137 27.3618 28.9932 26.9932 28.9932C26.7651 28.9932 26.5615 29.0439 26.3823 29.1458C26.2036 29.2441 26.063 29.3828 25.9614 29.5618C25.8628 29.7407 25.814 29.9443 25.814 30.1724C25.814 30.4006 25.8628 30.604 25.9614 30.7832C26.063 30.9622 26.2036 31.1025 26.3823 31.2043C26.5615 31.3025 26.7651 31.3518 26.9932 31.3518C27.3618 31.3518 27.6704 31.2061 27.9194 30.9148L28.4673 31.4202C28.2915 31.6343 28.0742 31.7974 27.8145 31.9097C27.5547 32.022 27.2651 32.0781 26.9458 32.0781ZM33.3833 32.0781C33.0005 32.0781 32.6548 31.9958 32.3462 31.8308C32.0405 31.6658 31.8003 31.4395 31.6245 31.1516C31.4526 30.8604 31.3667 30.5339 31.3667 30.1724C31.3667 29.8108 31.4526 29.4863 31.6245 29.1985C31.8003 28.9072 32.0405 28.679 32.3462 28.5142C32.6548 28.3491 33.0005 28.2666 33.3833 28.2666Q33.894 28.2666 34.3135 28.4629Q34.3647 28.4871 34.415 28.5142Q34.6772 28.6558 34.876 28.8599Q35.0239 29.012 35.1362 29.1985C35.3115 29.4863 35.3994 29.8108 35.3994 30.1724C35.3994 30.5339 35.3115 30.8604 35.1362 31.1516C34.9609 31.4395 34.7202 31.6658 34.415 31.8308Q34.3647 31.8579 34.3135 31.8821Q33.894 32.0781 33.3833 32.0781ZM0 28.3298L0.853027 28.3298L0.853027 31.3201L2.70068 31.3201L2.70068 32.0151L0 32.0151L0 28.3298ZM8.26758 31.2253L6.55664 31.2253L6.22998 32.0151L5.35596 32.0151L6.99854 28.3298L7.84131 28.3298L9.48877 32.0151L8.59375 32.0151L8.26758 31.2253ZM17.873 28.3298L16.6675 32.0151L15.7515 32.0151L14.9409 29.5195L14.1035 32.0151L13.1929 32.0151L11.9819 28.3298L12.8662 28.3298L13.6982 30.9199L14.5669 28.3298L15.3564 28.3298L16.1987 30.9412L17.0571 28.3298L17.873 28.3298ZM42.0264 32.0151L42.021 29.804L40.9365 31.6255L40.5522 31.6255L39.4731 29.8513L39.4731 32.0151L38.6729 32.0151L38.6729 28.3298L39.3784 28.3298L40.7578 30.6199L42.1157 28.3298L42.8159 28.3298L42.8267 32.0151L42.0264 32.0151ZM47.9287 28.3298C48.2549 28.3298 48.5376 28.3843 48.7759 28.4929C49.0181 28.6018 49.2041 28.7561 49.334 28.9563C49.4639 29.1562 49.5288 29.3933 49.5288 29.667C49.5288 29.9373 49.4639 30.1741 49.334 30.3777C49.2041 30.5779 49.0181 30.7322 48.7759 30.8411C48.5376 30.9463 48.2549 30.999 47.9287 30.999L47.186 30.999L47.186 32.0151L46.3335 32.0151L46.3335 28.3298L47.9287 28.3298ZM55.0122 31.2253L53.3013 31.2253L52.9746 32.0151L52.1006 32.0151L53.7432 28.3298L54.5854 28.3298L56.2334 32.0151L55.3384 32.0151L55.0122 31.2253ZM62.6279 28.3298L62.6279 32.0151L61.9277 32.0151L60.0903 29.7776L60.0903 32.0151L59.248 32.0151L59.248 28.3298L59.9536 28.3298L61.7856 30.5674L61.7856 28.3298L62.6279 28.3298ZM67.9014 30.7095L67.9014 32.0151L67.0483 32.0151L67.0483 30.699L65.6216 28.3298L66.5273 28.3298L67.5117 29.967L68.4961 28.3298L69.3335 28.3298L67.9014 30.7095ZM33.3833 31.3518C33.6006 31.3518 33.7974 31.3025 33.9727 31.2043C34.1484 31.1025 34.2852 30.9622 34.3833 30.7832Q34.4019 30.7502 34.4185 30.7163Q34.5361 30.4727 34.5361 30.1724Q34.5361 29.8721 34.4185 29.6287L34.418 29.6277Q34.4019 29.5942 34.3833 29.5618C34.2852 29.3828 34.1484 29.2441 33.9727 29.1458Q33.9087 29.1086 33.8403 29.0803L33.8403 29.0803Q33.6299 28.9932 33.3833 28.9932C33.1655 28.9932 32.9688 29.0439 32.7935 29.1458Q32.6831 29.2075 32.5923 29.2905Q32.4663 29.4055 32.3774 29.5618Q32.3672 29.5808 32.3574 29.6001L32.3574 29.6003Q32.23 29.8547 32.23 30.1724Q32.23 30.4902 32.3574 30.7444L32.3584 30.7466Q32.3677 30.7651 32.3774 30.7832C32.4795 30.9622 32.6182 31.1025 32.7935 31.2043C32.9688 31.3025 33.1655 31.3518 33.3833 31.3518ZM47.8813 30.304C48.1372 30.304 48.332 30.2495 48.4653 30.1409C48.5986 30.0286 48.6655 29.8706 48.6655 29.667C48.6655 29.46 48.5986 29.302 48.4653 29.1931Q48.2656 29.0247 47.8813 29.0247L47.186 29.0247L47.186 30.304L47.8813 30.304ZM7.99902 30.5779L7.41455 29.1667L6.83008 30.5779L7.99902 30.5779ZM54.7437 30.5779L54.1592 29.1667L53.5747 30.5779L54.7437 30.5779Z" fill="#323264" fill-opacity="1.000000" fill-rule="evenodd"/>
</svg>
