<svg width="130.000000" height="60.146729" viewBox="0 0 130 60.1467" fill="none" xmlns="http://www.w3.org/2000/svg" xmlns:xlink="http://www.w3.org/1999/xlink">
	<desc>
			Created with Pixso.
	</desc>
	<defs/>
	<path id="h" d="M4.95667 0L0 0L0 35.7986L4.95667 35.7986L4.95667 22.5176C4.95667 20.271 5.51562 18.4985 6.6333 17.2502C7.75098 16.002 9.28174 15.353 11.1769 15.353C12.8048 15.353 14.1655 15.9521 15.2589 17.1003C16.3523 18.2737 16.9111 19.7466 16.9111 21.519L16.9111 35.8235L21.8922 35.8235L21.8922 21.519C21.8922 18.2239 20.9932 15.6274 19.1952 13.6804C17.3971 11.7332 15.0403 10.7595 12.1731 10.7595C11.347 10.7595 10.5209 10.8594 9.71912 11.084C8.89294 11.3088 8.23694 11.5583 7.70239 11.833C7.16785 12.1077 6.65759 12.4072 6.19592 12.7566C5.73425 13.1062 5.41833 13.3557 5.27258 13.5056C5.12683 13.6553 5.00537 13.7554 4.95667 13.8301L4.95667 0Z" fill="#F0145A" fill-opacity="1.000000" fill-rule="nonzero"/>
	<path id="Vector" d="M27.8628 0L32.9727 0L32.9727 35.7688L27.8628 35.7688L27.8628 0Z" fill="#323264" fill-opacity="1.000000" fill-rule="evenodd"/>
	<path id="Vector" d="M63.1115 25.2932L63.3669 22.7383C63.3669 19.3147 62.2428 16.4531 59.9434 14.1538C57.6439 11.8545 54.7825 10.7302 51.3589 10.7302C47.9352 10.7302 44.9716 11.9565 42.5188 14.4094C40.066 16.8621 38.8397 19.7747 38.8397 23.2493C38.8397 26.8262 40.1172 29.8921 42.621 32.447C45.1249 35.002 48.1396 36.2795 51.6144 36.2795C52.9429 36.2795 54.1692 36.075 55.3956 35.7173C56.6219 35.3086 57.6439 34.8997 58.3593 34.491C59.1257 34.031 59.8922 33.52 60.5565 32.958C61.2208 32.396 61.6807 31.9871 61.8851 31.7317C62.0895 31.4761 62.2428 31.323 62.345 31.1697L59.0236 27.8481L58.2571 28.8191C57.7461 29.4321 56.8774 30.0454 55.6511 30.7097C54.3737 31.374 53.045 31.6807 51.6144 31.6807C49.6215 31.6807 47.9352 31.0674 46.5045 29.79C45.0737 28.5125 44.2051 27.0305 43.9496 25.2932L63.1115 25.2932ZM51.3589 15.0735C53.2495 15.0735 54.7825 15.6357 56.0599 16.7087C57.2863 17.833 58.0527 19.2126 58.3593 20.95L44.1539 20.95C44.6139 19.2126 45.4314 17.833 46.7089 16.7087C47.9352 15.6357 49.5193 15.0735 51.3589 15.0735Z" fill="#323264" fill-opacity="1.000000" fill-rule="nonzero"/>
	<path id="Vector" d="M86.9429 34.2866C86.9429 36.5349 86.2786 38.3745 84.8989 39.8052C83.5704 41.1848 81.8842 41.9001 79.7891 41.9001C78.8694 41.9001 77.9496 41.7468 77.0809 41.4915C76.2123 41.2358 75.548 40.9294 74.9858 40.5718C74.4238 40.2139 73.9128 39.8562 73.4019 39.3965C72.9419 38.9365 72.6354 38.6299 72.4821 38.4766C72.3287 38.3232 72.2266 38.1702 72.1244 38.0679L68.803 41.3892L69.2118 41.9001C69.4673 42.2578 69.9271 42.7178 70.5403 43.2288C71.1534 43.6887 71.8689 44.1997 72.6864 44.7107C73.504 45.1704 74.526 45.5793 75.8035 45.937C77.0809 46.2947 78.4094 46.499 79.7891 46.499C83.2638 46.499 86.1254 45.3237 88.527 42.9734C90.8774 40.5718 92.0527 37.7102 92.0527 34.2354L92.0527 11.2412L86.9429 11.2412L86.9429 13.7961L86.0742 13.0295C85.5121 12.5186 84.6434 12.0076 83.4171 11.4966C82.1908 10.9856 80.8622 10.7302 79.5336 10.7302C76.4166 10.7302 73.7595 11.9055 71.4601 14.3071C69.1606 16.7087 68.0365 19.5703 68.0365 22.9939C68.0365 26.4175 69.1606 29.2791 71.4601 31.6807C73.7595 34.0823 76.4166 35.2573 79.5336 35.2573C80.4023 35.2573 81.2198 35.1553 82.0885 34.9509C82.9061 34.6953 83.5704 34.4399 84.1324 34.1843C84.6946 33.929 85.2056 33.6223 85.6654 33.2646C86.1254 32.907 86.483 32.6514 86.5852 32.5493L86.9429 32.1917L86.9429 34.2866ZM73.1464 22.9939C73.1464 20.8477 73.8107 19.0593 75.1903 17.5774C76.5699 16.0955 78.2051 15.3291 80.0446 15.3291C81.8842 15.3291 83.5193 16.0955 84.8989 17.5774C86.2275 19.0593 86.9429 20.8477 86.9429 22.9939C86.9429 25.1399 86.2275 26.9285 84.8989 28.4102C83.5193 29.8921 81.8842 30.6587 80.0446 30.6587C78.2051 30.6587 76.5699 29.8921 75.1903 28.4102C73.8107 26.9285 73.1464 25.1399 73.1464 22.9939Z" fill="#323264" fill-opacity="1.000000" fill-rule="nonzero"/>
	<path id="Vector" d="M118.724 35.7686L118.724 19.928C118.724 17.322 117.753 15.1248 115.863 13.3875C113.972 11.5989 111.519 10.7302 108.505 10.7302C107.329 10.7302 106.154 10.8835 105.03 11.1902C103.906 11.5479 102.986 11.9055 102.322 12.3142C101.657 12.7231 100.993 13.1829 100.38 13.7451C99.7666 14.2561 99.4089 14.6138 99.2046 14.8181C99.0513 15.0225 98.8979 15.1758 98.7958 15.3291L102.117 18.6504L102.781 17.7817C103.19 17.2197 103.906 16.7087 104.979 16.1467C106.052 15.5845 107.227 15.3291 108.505 15.3291C109.986 15.3291 111.213 15.7891 112.184 16.6577C113.154 17.5264 113.614 18.6504 113.614 19.928L104.672 21.4609C102.475 21.8186 100.686 22.6873 99.4601 24.0669C98.1826 25.4465 97.5183 27.1328 97.5183 29.1257C97.5183 31.0164 98.3359 32.6514 99.9711 34.0823C101.657 35.564 103.701 36.2795 106.205 36.2795C107.074 36.2795 107.891 36.1772 108.709 35.9216C109.578 35.7173 110.242 35.4619 110.804 35.2063C111.366 34.9509 111.877 34.6443 112.337 34.2866C112.797 33.929 113.103 33.6733 113.308 33.5713C113.461 33.418 113.563 33.2646 113.614 33.2136L113.614 35.7686L118.724 35.7686ZM106.972 31.6807C105.643 31.6807 104.57 31.374 103.803 30.7607C102.986 30.1477 102.628 29.4321 102.628 28.6147C102.628 27.7461 102.884 26.9795 103.446 26.4175C104.008 25.8555 104.774 25.4465 105.694 25.2932L113.614 24.0159L113.614 24.5269C113.614 26.8262 113.052 28.5635 111.877 29.8411C110.702 31.0674 109.067 31.6807 106.972 31.6807Z" fill="#323264" fill-opacity="1.000000" fill-rule="nonzero"/>
	<path id="Vector" d="M124.89 0L130 0L130 35.7688L124.89 35.7688L124.89 0Z" fill="#323264" fill-opacity="1.000000" fill-rule="evenodd"/>
	<path id="LAW COMPANY" d="M50.5232 60.1467C49.8191 60.1467 49.1807 59.9954 48.6082 59.6926C48.0422 59.3835 47.5947 58.959 47.2656 58.4194Q47.1537 58.2297 47.0676 58.0288Q46.782 57.3623 46.782 56.5735Q46.782 55.7593 47.0862 55.0815Q47.1655 54.9048 47.2656 54.7373C47.5947 54.1912 48.0422 53.7666 48.6082 53.4639C49.1807 53.1545 49.8224 53 50.5331 53C51.132 53 51.6715 53.1052 52.152 53.3159C52.6389 53.5264 53.047 53.8291 53.376 54.2241L52.3494 55.1716Q51.9661 54.729 51.4823 54.5283Q51.0817 54.3623 50.6121 54.3623C50.1843 54.3623 49.8026 54.4578 49.4669 54.6484C49.1313 54.8328 48.8682 55.0928 48.6772 55.4282C48.493 55.7639 48.4009 56.1458 48.4009 56.5735C48.4009 57.0012 48.493 57.3828 48.6772 57.7185C48.8682 58.0542 49.1313 58.3174 49.4669 58.5081C49.8026 58.6924 50.1843 58.7847 50.6121 58.7847Q51.072 58.7847 51.4658 58.6233Q51.9595 58.4209 52.3494 57.9653L53.376 58.9128C53.047 59.3142 52.6389 59.6204 52.152 59.8308C51.6649 60.0415 51.1221 60.1467 50.5232 60.1467ZM62.5933 60.1467C61.876 60.1467 61.2278 59.9922 60.6487 59.6829C60.0762 59.3735 59.6254 58.949 59.2963 58.4094C58.9739 57.8633 58.8126 57.2512 58.8126 56.5735C58.8126 55.8955 58.9739 55.2869 59.2963 54.7473C59.6254 54.2009 60.0762 53.7732 60.6487 53.4639C61.2278 53.1545 61.876 53 62.5933 53C63.3107 53 63.9556 53.1545 64.5281 53.4639C65.1006 53.7732 65.5514 54.2009 65.8804 54.7473C66.2095 55.2869 66.374 55.8955 66.374 56.5735C66.374 57.2512 66.2095 57.8633 65.8804 58.4094C65.5514 58.949 65.1006 59.3735 64.5281 59.6829C63.9556 59.9922 63.3107 60.1467 62.5933 60.1467ZM0 53.1184L1.59912 53.1184L1.59912 58.7253L5.06396 58.7253L5.06396 60.0283L0 60.0283L0 53.1184ZM15.5016 58.5476L12.2935 58.5476L11.6814 60.0283L10.0428 60.0283L13.1227 53.1184L14.702 53.1184L17.7917 60.0283L16.1136 60.0283L15.5016 58.5476ZM33.5121 53.1184L31.2516 60.0283L29.5341 60.0283L28.0138 55.3494L26.4443 60.0283L24.7366 60.0283L22.4662 53.1184L24.1245 53.1184L25.6842 57.9751L27.313 53.1184L28.7937 53.1184L30.373 58.0146L31.9821 53.1184L33.5121 53.1184ZM78.7994 60.0283L78.7896 55.8823L76.7561 59.2979L76.0355 59.2979L74.0118 55.9712L74.0118 60.0283L72.5115 60.0283L72.5115 53.1184L73.8342 53.1184L76.4205 57.4124L78.9673 53.1184L80.2802 53.1184L80.2999 60.0283L78.7994 60.0283ZM89.866 53.1184C90.4779 53.1184 91.0077 53.2205 91.4552 53.4246C91.9093 53.6284 92.2581 53.918 92.5016 54.2932C92.7451 54.6682 92.8668 55.1125 92.8668 55.6257C92.8668 56.1326 92.7451 56.5767 92.5016 56.9585C92.2581 57.3335 91.9093 57.623 91.4552 57.8271C91.0077 58.0244 90.4779 58.1233 89.866 58.1233L88.4741 58.1233L88.4741 60.0283L86.875 60.0283L86.875 53.1184L89.866 53.1184ZM103.148 58.5476L99.9396 58.5476L99.3275 60.0283L97.689 60.0283L100.769 53.1184L102.348 53.1184L105.438 60.0283L103.76 60.0283L103.148 58.5476ZM117.428 53.1184L117.428 60.0283L116.115 60.0283L112.67 55.833L112.67 60.0283L111.09 60.0283L111.09 53.1184L112.413 53.1184L115.848 57.3137L115.848 53.1184L117.428 53.1184ZM127.315 57.5803L127.315 60.0283L125.716 60.0283L125.716 57.5605L123.041 53.1184L124.739 53.1184L126.584 56.1885L128.43 53.1184L130 53.1184L127.315 57.5803ZM62.5933 58.7847C63.0013 58.7847 63.3699 58.6924 63.6989 58.5081Q63.9343 58.3716 64.1205 58.1855L64.1205 58.1855Q64.3243 57.9817 64.4689 57.7185C64.6597 57.3828 64.7551 57.0012 64.7551 56.5735C64.7551 56.1458 64.6597 55.7639 64.4689 55.4282Q64.3169 55.1516 64.0992 54.9434Q63.921 54.7729 63.6989 54.6484C63.3699 54.4578 63.0013 54.3623 62.5933 54.3623C62.1853 54.3623 61.8168 54.4578 61.4877 54.6484C61.1587 54.8328 60.8987 55.0928 60.7079 55.4282Q60.6881 55.4644 60.6698 55.501Q60.4315 55.9775 60.4315 56.5735Q60.4315 57.1692 60.6698 57.6458L60.6703 57.6467Q60.6884 57.6829 60.7079 57.7185C60.8987 58.0542 61.1587 58.3174 61.4877 58.5081C61.8168 58.6924 62.1853 58.7847 62.5933 58.7847ZM89.7771 56.8201C90.2574 56.8201 90.6227 56.7183 90.8728 56.5142Q90.9811 56.4231 91.0581 56.3103Q91.2479 56.033 91.2479 55.6257Q91.2479 55.1938 91.0417 54.9141Q90.9697 54.8164 90.8728 54.7373C90.6227 54.5269 90.2574 54.4214 89.7771 54.4214L88.4741 54.4214L88.4741 56.8201L89.7771 56.8201ZM14.9982 57.3335L13.9025 54.688L12.8068 57.3335L14.9982 57.3335ZM102.644 57.3335L101.549 54.688L100.453 57.3335L102.644 57.3335Z" fill="#323264" fill-opacity="1.000000" fill-rule="evenodd"/>
</svg>
